<?xml version="1.0" encoding="UTF-8" standalone="no"?>
<!-- Created with Inkscape (http://www.inkscape.org/) -->

<svg
   xmlns:dc="http://purl.org/dc/elements/1.1/"
   xmlns:cc="http://creativecommons.org/ns#"
   xmlns:rdf="http://www.w3.org/1999/02/22-rdf-syntax-ns#"
   xmlns:svg="http://www.w3.org/2000/svg"
   xmlns="http://www.w3.org/2000/svg"
   xmlns:sodipodi="http://sodipodi.sourceforge.net/DTD/sodipodi-0.dtd"
   xmlns:inkscape="http://www.inkscape.org/namespaces/inkscape"
   width="210mm"
   height="297mm"
   viewBox="0 0 744.09448819 1052.3622047"
   id="svg5285"
   version="1.1"
   inkscape:version="0.91 r13725"
   sodipodi:docname="frontpage.svg">
  <defs
     id="defs5287">
    <linearGradient
       x1="0"
       y1="0"
       x2="1"
       y2="0"
       gradientUnits="userSpaceOnUse"
       gradientTransform="matrix(-1.53e-5,226.62402,226.62402,1.53e-5,197.16748,650.98242)"
       spreadMethod="pad"
       id="linearGradient4398">
      <stop
         style="stop-opacity:1;stop-color:#ed2790"
         offset="0"
         id="stop4400" />
      <stop
         style="stop-opacity:1;stop-color:#f179ae"
         offset="1"
         id="stop4402" />
    </linearGradient>
  </defs>
  <sodipodi:namedview
     id="base"
     pagecolor="#ffffff"
     bordercolor="#666666"
     borderopacity="1.0"
     inkscape:pageopacity="0.0"
     inkscape:pageshadow="2"
     inkscape:zoom="0.98994949"
     inkscape:cx="560.4389"
     inkscape:cy="544.49732"
     inkscape:document-units="px"
     inkscape:current-layer="layer1"
     showgrid="false"
     inkscape:window-width="1680"
     inkscape:window-height="987"
     inkscape:window-x="-8"
     inkscape:window-y="-8"
     inkscape:window-maximized="1" />
  <metadata
     id="metadata5290">
    <rdf:RDF>
      <cc:Work
         rdf:about="">
        <dc:format>image/svg+xml</dc:format>
        <dc:type
           rdf:resource="http://purl.org/dc/dcmitype/StillImage" />
        <dc:title></dc:title>
      </cc:Work>
    </rdf:RDF>
  </metadata>
  <g
     inkscape:label="Layer 1"
     inkscape:groupmode="layer"
     id="layer1">
    <g
       id="g5349"
       inkscape:export-xdpi="90"
       inkscape:export-ydpi="90">
      <g
         id="g4388"
         transform="matrix(0.35851719,0,0,-0.35851719,124.13752,741.62151)">
        <g
           id="g4394">
          <g
             id="g4396">
            <path
               inkscape:connector-curvature="0"
               id="path4404"
               style="fill:url(#linearGradient4398);stroke:none"
               d="m 242.594,877.606 64.047,-110.933 20.674,0 -64.047,110.933 -20.674,0 z m -26.169,0 64.047,-110.933 20.674,0 -64.047,110.933 -20.674,0 z m -26.169,0 64.048,-110.933 20.674,0 -64.048,110.933 -20.674,0 z m -26.168,0 64.048,-110.933 20.673,0 -64.046,110.933 -20.675,0 z m -26.168,0 64.047,-110.933 20.675,0 -64.049,110.933 -20.673,0 z M 67.02,764.292 77.358,746.387 141.404,857.32 131.068,875.225 67.02,764.292 Z M 80.105,741.63 90.442,723.724 154.49,834.657 144.152,852.563 80.105,741.63 Z M 93.19,718.966 103.526,701.061 167.574,811.994 157.236,829.899 93.19,718.966 Z m 13.084,-22.662 10.337,-17.905 64.047,110.933 -10.338,17.905 -64.046,-110.933 z m 13.084,-22.663 10.336,-17.905 64.048,110.933 -10.337,17.905 -64.047,-110.933 z m 78.487,85.897 -10.336,-17.904 128.095,0 10.335,17.904 -128.094,0 z m -13.084,-22.664 -10.337,-17.903 128.095,0 10.336,17.903 -128.094,0 z m -13.084,-22.661 -10.338,-17.905 128.095,0 10.337,17.905 -128.094,0 z m -13.084,-22.663 -10.338,-17.904 128.094,0 10.339,17.904 -128.095,0 z m -13.085,-22.663 -10.338,-17.904 128.095,0 10.339,17.904 -128.096,0 z" />
          </g>
        </g>
      </g>
      <flowRoot
         style="font-style:normal;font-weight:bold;font-size:60px;line-height:125%;font-family:'Berlin Sans FB Demi';letter-spacing:0px;word-spacing:0px;fill:#e6e6e6;fill-opacity:1;stroke:none;stroke-width:1px;stroke-linecap:butt;stroke-linejoin:miter;stroke-opacity:1;writing-mode:lr;-inkscape-font-specification:'Berlin Sans FB Demi Bold';font-stretch:normal;font-variant:normal;"
         id="flowRoot5311"
         xml:space="preserve"><flowRegion
           id="flowRegion5313"><rect
             style="font-style:normal;font-variant:normal;font-weight:bold;font-stretch:normal;font-size:60px;font-family:'Berlin Sans FB Demi';-inkscape-font-specification:'Berlin Sans FB Demi Bold';writing-mode:lr-tb;fill:#e6e6e6;"
             ry="0"
             y="428.08795"
             x="248.49754"
             height="88.893494"
             width="285.8732"
             id="rect5315" /></flowRegion><flowPara
           id="flowPara5317">Frontpage</flowPara></flowRoot>    </g>
  </g>
</svg>
